<?xml version="1.0" encoding="UTF-8" standalone="no"?>
<!DOCTYPE svg PUBLIC "-//W3C//DTD SVG 1.1//EN" "http://www.w3.org/Graphics/SVG/1.1/DTD/svg11.dtd">
<svg width="100%" height="100%" viewBox="0 0 427 362" version="1.1" xmlns="http://www.w3.org/2000/svg" xmlns:xlink="http://www.w3.org/1999/xlink" xml:space="preserve" xmlns:serif="http://www.serif.com/" style="fill-rule:evenodd;clip-rule:evenodd;stroke-linejoin:round;stroke-miterlimit:2;">
    <g transform="matrix(1,0,0,1,-1031.36,-340.638)">
        <g>
            <g>
                <path d="M1441.31,625.79C1441.09,625.79 1440.86,625.76 1440.64,625.7C1439.31,625.33 1438.53,623.95 1438.91,622.62L1445.8,597.99C1446.17,596.66 1447.55,595.88 1448.88,596.26C1450.21,596.63 1450.99,598.01 1450.61,599.34L1443.72,623.97C1443.4,625.06 1442.4,625.79 1441.31,625.79Z" style="fill:rgb(0,255,162);fill-rule:nonzero;"/>
            </g>
            <g>
                <path d="M1434.89,629.99C1434.67,629.99 1434.44,629.96 1434.21,629.9C1432.88,629.53 1432.11,628.15 1432.48,626.82L1446.47,577.04C1446.84,575.71 1448.22,574.93 1449.55,575.31C1450.88,575.68 1451.65,577.06 1451.28,578.39L1437.29,628.17C1436.98,629.27 1435.98,629.99 1434.89,629.99Z" style="fill:rgb(0,255,162);fill-rule:nonzero;"/>
            </g>
            <g>
                <path d="M1428.32,634.26C1428.09,634.26 1427.87,634.23 1427.64,634.17C1426.31,633.79 1425.54,632.41 1425.91,631.08L1447.15,555.92C1447.53,554.59 1448.91,553.82 1450.24,554.19C1451.57,554.57 1452.34,555.95 1451.97,557.28L1430.73,632.44C1430.42,633.54 1429.41,634.26 1428.32,634.26Z" style="fill:rgb(0,255,156);fill-rule:nonzero;"/>
            </g>
            <g>
                <path d="M1421.63,638.6C1421.4,638.6 1421.17,638.57 1420.95,638.5C1419.62,638.12 1418.85,636.74 1419.23,635.41L1447.85,534.64C1448.23,533.31 1449.61,532.54 1450.94,532.92C1452.27,533.3 1453.04,534.68 1452.66,536.01L1424.04,636.78C1423.72,637.88 1422.71,638.6 1421.63,638.6Z" style="fill:rgb(0,255,149);fill-rule:nonzero;"/>
            </g>
            <g>
                <path d="M1414.79,643.01C1414.56,643.01 1414.33,642.98 1414.1,642.91C1412.77,642.53 1412,641.15 1412.38,639.82L1448.51,513.21C1448.89,511.88 1450.27,511.11 1451.6,511.49C1452.93,511.87 1453.7,513.25 1453.32,514.58L1417.19,641.19C1416.88,642.3 1415.88,643.01 1414.79,643.01Z" style="fill:rgb(0,255,144);fill-rule:nonzero;"/>
            </g>
            <g>
                <path d="M1407.81,647.5C1407.58,647.5 1407.35,647.47 1407.12,647.4C1405.79,647.02 1405.03,645.63 1405.41,644.31L1449.2,491.63C1449.58,490.3 1450.96,489.54 1452.29,489.92C1453.62,490.3 1454.38,491.69 1454,493.01L1410.21,645.69C1409.9,646.78 1408.9,647.5 1407.81,647.5Z" style="fill:rgb(0,255,138);fill-rule:nonzero;"/>
            </g>
            <g>
                <path d="M1400.69,652.05C1400.46,652.05 1400.23,652.02 1400,651.95C1398.67,651.57 1397.91,650.18 1398.29,648.86L1449.87,469.87C1450.25,468.54 1451.64,467.78 1452.96,468.16C1454.29,468.54 1455.05,469.93 1454.67,471.25L1403.09,650.24C1402.78,651.34 1401.78,652.05 1400.69,652.05Z" style="fill:rgb(0,255,132);fill-rule:nonzero;"/>
            </g>
            <g>
                <path d="M1393.44,656.68C1393.21,656.68 1392.98,656.65 1392.74,656.58C1391.41,656.2 1390.65,654.81 1391.03,653.48L1450.54,447.95C1450.92,446.62 1452.31,445.86 1453.64,446.24C1454.97,446.62 1455.73,448.01 1455.35,449.34L1395.84,654.87C1395.52,655.97 1394.53,656.68 1393.44,656.68Z" style="fill:rgb(0,255,119);fill-rule:nonzero;"/>
            </g>
            <g>
                <path d="M1386.05,661.37C1385.82,661.37 1385.58,661.34 1385.35,661.27C1384.02,660.88 1383.26,659.5 1383.65,658.17L1451.23,425.86C1451.62,424.53 1453,423.77 1454.33,424.16C1455.66,424.55 1456.42,425.93 1456.03,427.26L1388.45,659.57C1388.13,660.66 1387.13,661.37 1386.05,661.37Z" style="fill:rgb(0,255,114);fill-rule:nonzero;"/>
            </g>
            <g>
                <path d="M1378.52,666.14C1378.29,666.14 1378.05,666.11 1377.82,666.04C1376.49,665.65 1375.73,664.26 1376.12,662.94L1451.91,403.62C1452.3,402.29 1453.69,401.54 1455.01,401.92C1456.34,402.31 1457.1,403.7 1456.71,405.02L1380.92,664.34C1380.6,665.43 1379.6,666.14 1378.52,666.14Z" style="fill:rgb(0,255,108);fill-rule:nonzero;"/>
            </g>
            <g>
                <path d="M1370.85,670.98C1370.62,670.98 1370.38,670.95 1370.14,670.88C1368.81,670.49 1368.06,669.1 1368.45,667.78L1452.58,381.23C1452.97,379.91 1454.36,379.14 1455.68,379.54C1457,379.93 1457.76,381.32 1457.37,382.64L1373.24,669.19C1372.92,670.27 1371.93,670.98 1370.85,670.98Z" style="fill:rgb(0,255,101);fill-rule:nonzero;"/>
            </g>
            <g>
                <path d="M1363.04,675.88C1362.81,675.88 1362.57,675.85 1362.33,675.78C1361.01,675.39 1360.25,674 1360.64,672.68L1453.26,358.65C1453.65,357.33 1455.04,356.56 1456.36,356.96C1457.68,357.35 1458.44,358.74 1458.05,360.06L1365.43,674.09C1365.11,675.18 1364.12,675.88 1363.04,675.88Z" style="fill:rgb(0,255,89);fill-rule:nonzero;"/>
            </g>
            <g>
                <path d="M1355.09,680.86C1354.85,680.86 1354.62,680.83 1354.38,680.76C1353.06,680.37 1352.3,678.98 1352.69,677.65L1445.87,363.21C1438.89,361.98 1431.91,360.76 1424.92,359.55L1424.15,359.42C1422.79,359.18 1421.88,357.89 1422.12,356.53C1422.36,355.17 1423.65,354.26 1425.01,354.5L1425.78,354.63C1433.69,356.01 1441.6,357.38 1449.5,358.78C1450.2,358.91 1450.82,359.32 1451.19,359.93C1451.56,360.54 1451.66,361.27 1451.46,361.95L1357.48,679.07C1357.17,680.16 1356.17,680.86 1355.09,680.86Z" style="fill:rgb(0,255,77);fill-rule:nonzero;"/>
            </g>
            <g>
                <path d="M1347.01,685.91C1346.77,685.91 1346.53,685.88 1346.3,685.81C1344.98,685.42 1344.22,684.02 1344.62,682.7L1439.08,365.44C1428.59,363.54 1417.39,361.55 1404.13,359.23L1393.29,357.34C1391.93,357.1 1391.02,355.81 1391.26,354.45C1391.5,353.09 1392.8,352.18 1394.15,352.42L1404.99,354.31C1419.43,356.83 1431.42,358.97 1442.72,361.02C1443.42,361.15 1444.03,361.57 1444.4,362.17C1444.77,362.78 1444.87,363.51 1444.67,364.19L1349.42,684.13C1349.08,685.21 1348.08,685.91 1347.01,685.91Z" style="fill:rgb(0,255,71);fill-rule:nonzero;"/>
            </g>
            <g>
                <path d="M1338.78,691.03C1338.54,691.03 1338.3,691 1338.06,690.92C1336.74,690.52 1335.99,689.13 1336.38,687.81L1432.11,367.72C1416.07,364.74 1399,361.66 1378.66,358.09L1362.93,355.33C1361.57,355.09 1360.66,353.79 1360.9,352.44C1361.14,351.08 1362.43,350.17 1363.8,350.41L1379.53,353.17C1401.04,356.95 1418.91,360.18 1435.77,363.32C1436.47,363.45 1437.08,363.87 1437.45,364.48C1437.82,365.09 1437.91,365.82 1437.71,366.5L1341.18,689.25C1340.85,690.33 1339.86,691.03 1338.78,691.03Z" style="fill:rgb(0,255,59);fill-rule:nonzero;"/>
            </g>
            <g>
                <path d="M1330.42,696.22C1330.18,696.22 1329.94,696.19 1329.7,696.11C1328.38,695.71 1327.63,694.32 1328.03,693L1425.04,370.09C1422.42,369.59 1419.8,369.08 1417.19,368.57C1408.57,366.9 1399.66,365.17 1390.88,363.62L1333.17,353.42C1331.81,353.18 1330.9,351.88 1331.14,350.52C1331.38,349.16 1332.68,348.24 1334.04,348.49L1391.75,358.69C1400.57,360.25 1409.5,361.98 1418.14,363.66C1421.66,364.34 1425.18,365.03 1428.7,365.7C1429.39,365.83 1430,366.25 1430.37,366.86C1430.74,367.47 1430.83,368.2 1430.63,368.87L1332.82,694.44C1332.49,695.52 1331.49,696.22 1330.42,696.22Z" style="fill:rgb(0,255,47);fill-rule:nonzero;"/>
            </g>
            <g>
                <path d="M1321.92,701.48C1321.68,701.48 1321.44,701.44 1321.2,701.37C1319.88,700.97 1319.13,699.58 1319.53,698.25L1417.82,372.51C1414.29,371.81 1410.75,371.11 1407.22,370.4C1396.74,368.31 1385.9,366.14 1375.22,364.24L1303.96,351.57C1302.6,351.33 1301.69,350.03 1301.94,348.67C1302.18,347.31 1303.48,346.41 1304.84,346.65L1376.1,359.32C1386.84,361.23 1397.7,363.4 1408.21,365.5C1412.64,366.38 1417.07,367.27 1421.5,368.14C1422.19,368.28 1422.8,368.7 1423.16,369.3C1423.52,369.9 1423.62,370.64 1423.41,371.31L1324.33,699.69C1323.98,700.78 1322.99,701.48 1321.92,701.48Z" style="fill:rgb(0,255,34);fill-rule:nonzero;"/>
            </g>
            <g>
                <path d="M1304.04,702.62C1303.15,702.62 1302.28,702.14 1301.83,701.3C1301.18,700.08 1301.64,698.57 1302.86,697.92L1314.49,691.71L1410.45,375.03L1386.13,370.15C1383.96,369.71 1381.79,369.27 1379.62,368.83C1373.03,367.49 1366.21,366.11 1359.49,364.9L1275.29,349.84C1273.93,349.6 1273.03,348.3 1273.27,346.94C1273.51,345.58 1274.81,344.68 1276.17,344.92L1360.38,359.98C1367.16,361.19 1374,362.58 1380.62,363.93C1382.79,364.37 1384.95,364.81 1387.12,365.25L1414.14,370.67C1414.83,370.81 1415.43,371.23 1415.79,371.84C1416.15,372.45 1416.24,373.18 1416.04,373.85L1319.13,693.67C1318.81,694.74 1318.3,695.36 1317.32,695.88L1305.23,702.34C1304.85,702.53 1304.44,702.62 1304.04,702.62Z" style="fill:rgb(0,255,28);fill-rule:nonzero;"/>
            </g>
            <g>
                <path d="M1271.17,696.89C1270.28,696.89 1269.42,696.42 1268.97,695.58C1268.31,694.37 1268.76,692.85 1269.97,692.19L1314.59,667.98L1402.93,377.6L1374.62,371.79C1371.99,371.25 1369.36,370.7 1366.72,370.15C1359.17,368.57 1351.37,366.94 1343.67,365.56L1247.15,348.19C1245.79,347.95 1244.89,346.65 1245.13,345.29C1245.37,343.93 1246.67,343.04 1248.03,343.27L1344.55,360.64C1352.32,362.04 1360.16,363.67 1367.74,365.26C1370.37,365.81 1372.99,366.36 1375.62,366.89L1406.62,373.26C1407.31,373.4 1407.91,373.83 1408.27,374.43C1408.63,375.03 1408.72,375.76 1408.51,376.43L1319.22,669.93C1318.81,671.29 1318.04,671.8 1317.29,672.2L1272.35,696.58C1271.98,696.79 1271.58,696.89 1271.17,696.89Z" style="fill:rgb(0,255,17);fill-rule:nonzero;"/>
            </g>
            <g>
                <path d="M1238.86,691.24C1237.98,691.24 1237.12,690.77 1236.67,689.95C1236,688.74 1236.44,687.22 1237.65,686.55L1314.27,644.34C1314.41,644.26 1314.56,644.19 1314.71,644.11L1395.3,380.24L1363.36,373.53C1360.17,372.86 1356.98,372.17 1353.78,371.49C1345.54,369.72 1337.02,367.89 1328.62,366.36L1219.6,346.61C1218.24,346.36 1217.34,345.06 1217.59,343.7C1217.84,342.34 1219.14,341.45 1220.5,341.69L1329.52,361.44C1338,362.98 1346.56,364.82 1354.84,366.6C1358.02,367.28 1361.21,367.97 1364.39,368.64L1399,375.91C1399.69,376.05 1400.28,376.48 1400.64,377.08C1401,377.68 1401.08,378.41 1400.88,379.08L1319.41,645.83C1319.26,646.34 1319,647.2 1318.01,647.95C1317.62,648.24 1317.22,648.44 1316.92,648.59C1316.84,648.63 1316.75,648.67 1316.67,648.72L1240.05,690.93C1239.68,691.14 1239.27,691.24 1238.86,691.24Z" style="fill:rgb(0,255,4);fill-rule:nonzero;"/>
            </g>
            <g>
                <path d="M1207.1,685.68C1206.22,685.68 1205.37,685.22 1204.92,684.4C1204.25,683.19 1204.68,681.67 1205.88,681L1314.37,620.31C1314.51,620.23 1314.65,620.16 1314.8,620.08C1314.83,620.07 1387.53,382.96 1387.53,382.96L1333.57,371.36C1331.91,371 1330.24,370.64 1328.58,370.27C1324.03,369.27 1319.33,368.24 1314.69,367.39L1195.69,345.6C1194.33,345.35 1193.43,344.05 1193.68,342.69C1193.93,341.33 1195.22,340.43 1196.59,340.68L1315.59,362.47C1320.31,363.33 1325.06,364.38 1329.65,365.38C1331.31,365.74 1332.96,366.11 1334.62,366.46L1391.25,378.63C1391.93,378.78 1392.53,379.21 1392.88,379.81C1393.23,380.41 1393.32,381.14 1393.11,381.81L1319.52,621.81C1319.3,622.54 1319.03,623.24 1318.11,623.91C1317.74,624.18 1317.37,624.37 1317.08,624.52C1316.99,624.57 1316.9,624.61 1316.82,624.66L1208.33,685.35C1207.93,685.58 1207.51,685.68 1207.1,685.68Z" style="fill:rgb(7,255,0);fill-rule:nonzero;"/>
            </g>
            <g>
                <path d="M1175.89,680.21C1175.02,680.21 1174.17,679.76 1173.71,678.95C1173.03,677.75 1173.45,676.22 1174.65,675.54L1313.88,596.45C1314.11,596.32 1314.39,596.19 1314.69,596.05C1314.76,596.02 1314.84,595.98 1314.92,595.94C1314.94,595.83 1314.97,595.74 1315,595.65L1379.61,385.75L1306.56,369.7C1297.48,367.71 1288.15,366 1279.13,364.34C1275.6,363.69 1272.08,363.05 1268.56,362.38L1187.49,347.09C1186.13,346.83 1185.24,345.53 1185.5,344.17C1185.76,342.81 1187.07,341.92 1188.42,342.18L1269.49,357.47C1273,358.13 1276.52,358.78 1280.03,359.42C1289.09,361.08 1298.46,362.8 1307.63,364.81L1383.34,381.45C1384.02,381.6 1384.61,382.03 1384.96,382.63C1385.31,383.23 1385.4,383.96 1385.19,384.63L1319.76,597.25C1319.66,597.75 1319.5,598.51 1318.94,599.16C1318.31,599.9 1317.46,600.28 1316.77,600.6C1316.62,600.67 1316.47,600.73 1316.35,600.8L1177.12,679.89C1176.73,680.1 1176.31,680.21 1175.89,680.21Z" style="fill:rgb(14,255,0);fill-rule:nonzero;"/>
            </g>
            <g>
                <path d="M1145.24,674.82C1144.38,674.82 1143.53,674.37 1143.07,673.57C1142.38,672.37 1142.79,670.85 1143.99,670.16L1314.58,571.75C1314.72,571.67 1314.86,571.59 1315,571.52C1315.02,571.51 1315.03,571.5 1315.04,571.5L1371.55,388.61L1298.24,372.14C1291.55,370.64 1285.52,369.3 1279.36,368.1L1179.15,348.65C1177.79,348.39 1176.91,347.07 1177.17,345.72C1177.43,344.37 1178.75,343.48 1180.1,343.74L1280.31,363.19C1286.54,364.4 1292.61,365.75 1299.33,367.26L1375.28,384.32C1375.96,384.47 1376.55,384.9 1376.9,385.51C1377.25,386.11 1377.33,386.83 1377.13,387.5L1319.74,573.24C1319.52,573.96 1319.25,574.65 1318.35,575.32C1317.98,575.59 1317.62,575.78 1317.33,575.94C1317.24,575.99 1317.15,576.03 1317.07,576.08L1146.48,674.49C1146.09,674.71 1145.66,674.82 1145.24,674.82Z" style="fill:rgb(20,255,0);fill-rule:nonzero;"/>
            </g>
            <g>
                <path d="M1115.14,669.52C1114.28,669.52 1113.45,669.08 1112.98,668.28C1112.28,667.09 1112.68,665.56 1113.87,664.86L1315.22,546.9C1315.3,546.67 1315.37,546.39 1315.44,546.12C1315.52,545.83 1315.59,545.54 1315.68,545.26L1363.36,391.53L1270.79,370.28C1266.56,369.31 1262.2,368.48 1257.99,367.67C1255.96,367.28 1253.92,366.89 1251.9,366.49L1170.69,350.28C1169.34,350.01 1168.46,348.69 1168.73,347.34C1169,345.99 1170.31,345.11 1171.67,345.38L1252.88,361.59C1254.89,361.99 1256.91,362.38 1258.93,362.76C1263.19,363.57 1267.6,364.42 1271.91,365.41L1367.11,387.26C1367.79,387.42 1368.37,387.85 1368.72,388.45C1369.07,389.05 1369.15,389.77 1368.94,390.44L1320.46,546.75C1320.4,546.96 1320.34,547.17 1320.28,547.4C1320.12,548 1319.94,548.68 1319.62,549.36C1319.1,550.46 1318.28,550.93 1317.79,551.21L1308.77,556.49L1116.4,669.19C1116,669.41 1115.57,669.52 1115.14,669.52Z" style="fill:rgb(26,255,0);fill-rule:nonzero;"/>
            </g>
            <g>
                <path d="M1085.59,664.3C1084.74,664.3 1083.91,663.86 1083.44,663.08C1082.73,661.89 1083.12,660.36 1084.31,659.65L1314.92,522.44C1315.03,522.37 1315.15,522.31 1315.26,522.25L1316.04,519.74L1355.02,394.52L1277.04,376.23C1266.05,373.65 1254.68,370.97 1243.44,368.67L1162.06,351.96C1160.71,351.68 1159.84,350.36 1160.11,349.01C1160.39,347.66 1161.71,346.79 1163.06,347.06L1244.44,363.77C1255.75,366.09 1267.15,368.77 1278.18,371.36L1358.77,390.26C1359.45,390.42 1360.03,390.85 1360.37,391.45C1360.71,392.05 1360.79,392.77 1360.59,393.43L1320,523.83C1319.86,524.34 1319.59,525.28 1318.59,526.04C1318.26,526.29 1317.94,526.46 1317.69,526.6L1317.48,526.72L1086.87,663.93C1086.47,664.19 1086.03,664.3 1085.59,664.3Z" style="fill:rgb(32,255,0);fill-rule:nonzero;"/>
            </g>
            <g>
                <path d="M1056.6,659.17C1055.75,659.17 1054.93,658.74 1054.46,657.96C1053.75,656.78 1054.13,655.24 1055.31,654.53L1315.17,497.51C1315.23,497.47 1315.31,497.43 1315.38,497.39C1315.4,497.31 1315.42,497.23 1315.45,497.15L1346.55,397.6L1272.87,379.95C1269.1,379.05 1265.33,378.12 1261.57,377.2C1252.8,375.04 1243.73,372.82 1234.78,370.93L1153.32,353.74C1151.97,353.45 1151.11,352.13 1151.39,350.78C1151.68,349.43 1153,348.57 1154.35,348.85L1235.81,366.04C1244.84,367.95 1253.95,370.18 1262.76,372.35C1266.52,373.27 1270.27,374.2 1274.03,375.1L1350.32,393.37C1350.99,393.53 1351.57,393.96 1351.91,394.57C1352.25,395.17 1352.33,395.89 1352.12,396.55L1320.19,498.8C1320.09,499.26 1319.94,499.96 1319.44,500.6C1318.95,501.23 1318.3,501.54 1317.88,501.75L1317.24,502.12L1057.9,658.81C1057.49,659.06 1057.05,659.17 1056.6,659.17Z" style="fill:rgb(39,255,0);fill-rule:nonzero;"/>
            </g>
            <g>
                <path d="M1043.33,644.76C1042.49,644.76 1041.67,644.34 1041.2,643.57C1040.48,642.39 1040.85,640.85 1042.02,640.13L1315.48,472.37L1337.94,400.74L1226.07,373.38C1217.05,371.17 1207.77,369.21 1198.81,367.32C1195.08,366.53 1191.35,365.74 1187.62,364.94L1144.42,355.58C1143.07,355.29 1142.21,353.96 1142.51,352.61C1142.8,351.26 1144.13,350.41 1145.48,350.7L1188.67,360.06C1192.39,360.87 1196.11,361.65 1199.83,362.44C1208.84,364.34 1218.15,366.31 1227.25,368.53L1341.71,396.52C1342.38,396.68 1342.95,397.12 1343.29,397.72C1343.63,398.32 1343.7,399.04 1343.5,399.7L1320.18,474.08C1320,474.66 1319.7,475.64 1318.45,476.41L1044.62,644.39C1044.22,644.64 1043.77,644.76 1043.33,644.76Z" style="fill:rgb(44,255,0);fill-rule:nonzero;"/>
            </g>
            <g>
                <path d="M1042.47,622.63C1041.64,622.63 1040.82,622.21 1040.34,621.45C1039.61,620.28 1039.97,618.74 1041.14,618.01L1315.6,447.18C1315.64,447.04 1315.67,446.9 1315.71,446.78L1329.19,403.96L1216.86,375.92C1205.6,373.11 1194.08,370.55 1182.93,368.07L1135.4,357.5C1134.05,357.2 1133.2,355.86 1133.5,354.52C1133.8,353.17 1135.14,352.32 1136.48,352.62L1184.01,363.19C1195.19,365.67 1206.75,368.24 1218.07,371.07L1332.98,399.76C1333.65,399.93 1334.22,400.36 1334.56,400.96C1334.9,401.56 1334.97,402.27 1334.76,402.93L1320.49,448.28C1320.47,448.34 1320.46,448.41 1320.44,448.48C1320.34,448.87 1320.21,449.41 1319.9,449.94C1319.43,450.72 1318.77,451.12 1318.41,451.33L1314.4,453.82L1043.8,622.25C1043.38,622.51 1042.92,622.63 1042.47,622.63Z" style="fill:rgb(44,255,0);fill-rule:nonzero;"/>
            </g>
            <g>
                <path d="M1041.61,600.34C1040.78,600.34 1039.97,599.93 1039.49,599.18C1038.75,598.01 1039.1,596.47 1040.27,595.73L1314.73,422.45C1314.93,422.32 1315.19,422.19 1315.46,422.05C1315.55,422.01 1315.67,421.94 1315.77,421.89C1315.81,421.72 1315.86,421.52 1315.89,421.38C1315.96,421.05 1316.04,420.73 1316.12,420.48L1320.3,407.25L1207.86,378.6C1205.85,378.09 1203.84,377.56 1201.83,377.04C1197.56,375.92 1193.15,374.77 1188.8,373.78L1126.23,359.49C1124.88,359.18 1124.04,357.84 1124.35,356.5C1124.66,355.15 1126,354.31 1127.34,354.62L1189.91,368.91C1194.33,369.92 1198.79,371.09 1203.09,372.21C1205.09,372.73 1207.09,373.26 1209.09,373.77L1324.09,403.07C1324.76,403.24 1325.32,403.68 1325.66,404.28C1325.99,404.88 1326.07,405.59 1325.86,406.25L1320.88,422C1320.84,422.13 1320.8,422.3 1320.76,422.48C1320.59,423.26 1320.37,424.23 1319.76,425.02C1319.19,425.76 1318.38,426.18 1317.74,426.51C1317.61,426.58 1317.48,426.64 1317.39,426.7L1042.93,599.98C1042.53,600.22 1042.07,600.34 1041.61,600.34Z" style="fill:rgb(50,255,0);fill-rule:nonzero;"/>
            </g>
            <g>
                <path d="M1040.76,577.89C1039.94,577.89 1039.13,577.48 1038.65,576.74C1037.91,575.58 1038.24,574.03 1039.41,573.29L1298.71,407.2L1176.41,375.52C1171.9,374.35 1167.26,373.28 1162.78,372.25C1161.23,371.89 1159.67,371.53 1158.12,371.17L1116.94,361.52C1115.6,361.2 1114.76,359.86 1115.08,358.52C1115.39,357.18 1116.74,356.34 1118.08,356.65L1159.26,366.3C1160.81,366.66 1162.36,367.02 1163.91,367.38C1168.42,368.42 1173.09,369.5 1177.67,370.69L1305.52,403.8C1306.48,404.05 1307.21,404.84 1307.36,405.83C1307.52,406.81 1307.08,407.79 1306.24,408.33L1042.1,577.5C1041.69,577.76 1041.22,577.89 1040.76,577.89Z" style="fill:rgb(50,255,0);fill-rule:nonzero;"/>
            </g>
            <g>
                <path d="M1039.9,555.28C1039.08,555.28 1038.28,554.88 1037.8,554.14C1037.05,552.98 1037.38,551.43 1038.53,550.68L1264.58,403.69L1206.66,388.53C1202.33,387.4 1197.99,386.25 1193.66,385.11C1177.15,380.76 1160.08,376.27 1143.22,372.22L1107.49,363.64C1106.15,363.32 1105.32,361.97 1105.64,360.63C1105.96,359.29 1107.32,358.46 1108.65,358.78L1144.39,367.36C1161.31,371.42 1178.4,375.92 1194.94,380.28C1199.27,381.42 1203.6,382.56 1207.93,383.69L1271.32,400.28C1272.28,400.53 1273,401.32 1273.15,402.3C1273.31,403.28 1272.88,404.26 1272.05,404.8L1041.26,554.87C1040.84,555.15 1040.37,555.28 1039.9,555.28Z" style="fill:rgb(56,255,0);fill-rule:nonzero;"/>
            </g>
            <g>
                <path d="M1039.04,532.5C1038.23,532.5 1037.43,532.11 1036.95,531.38C1036.19,530.23 1036.51,528.68 1037.66,527.92L1231.02,400.27L1182.29,387.38C1178.76,386.45 1175.23,385.51 1171.7,384.57C1157.56,380.81 1142.94,376.93 1128.5,373.37L1097.91,365.84C1096.57,365.51 1095.75,364.16 1096.08,362.81C1096.41,361.47 1097.76,360.65 1099.11,360.98L1129.7,368.51C1144.18,372.08 1158.83,375.97 1172.99,379.73C1176.52,380.67 1180.05,381.61 1183.58,382.54L1237.71,396.86C1238.66,397.11 1239.38,397.9 1239.54,398.87C1239.7,399.84 1239.27,400.82 1238.45,401.36L1040.43,532.08C1039.99,532.37 1039.51,532.5 1039.04,532.5Z" style="fill:rgb(56,255,0);fill-rule:nonzero;"/>
            </g>
            <g>
                <path d="M1038.18,509.56C1037.37,509.56 1036.58,509.17 1036.1,508.45C1035.33,507.3 1035.64,505.75 1036.78,504.98L1198,396.93L1150.1,384.11C1138.14,380.9 1125.78,377.58 1113.58,374.5L1088.18,368.09C1086.84,367.75 1086.03,366.39 1086.37,365.05C1086.71,363.71 1088.07,362.9 1089.41,363.24L1114.81,369.65C1127.05,372.74 1139.43,376.06 1151.4,379.27L1204.62,393.52C1205.57,393.77 1206.28,394.56 1206.44,395.53C1206.6,396.5 1206.18,397.47 1205.37,398.02L1039.58,509.15C1039.14,509.43 1038.66,509.56 1038.18,509.56Z" style="fill:rgb(56,255,0);fill-rule:nonzero;"/>
            </g>
            <g>
                <path d="M1037.32,486.46C1036.52,486.46 1035.73,486.08 1035.25,485.37C1034.47,484.23 1034.77,482.67 1035.91,481.9L1165.54,393.68L1128.48,383.65C1118.72,381 1108.63,378.26 1098.67,375.69L1078.32,370.43C1076.98,370.08 1076.18,368.72 1076.53,367.38C1076.88,366.04 1078.24,365.24 1079.58,365.58L1099.93,370.84C1109.91,373.42 1120.02,376.16 1129.8,378.81L1172.1,390.26C1173.04,390.51 1173.75,391.3 1173.91,392.26C1174.07,393.22 1173.66,394.19 1172.85,394.74L1038.72,486.02C1038.29,486.32 1037.8,486.46 1037.32,486.46Z" style="fill:rgb(56,255,0);fill-rule:nonzero;"/>
            </g>
            <g>
                <path d="M1036.46,463.2C1035.67,463.2 1034.89,462.82 1034.4,462.12C1033.61,460.98 1033.9,459.43 1035.04,458.64L1133.64,390.5C1130.28,389.58 1126.93,388.65 1123.57,387.73C1110.56,384.14 1097.1,380.44 1083.84,376.93L1068.33,372.82C1067,372.47 1066.2,371.1 1066.55,369.76C1066.9,368.43 1068.27,367.63 1069.61,367.98L1085.12,372.09C1098.41,375.61 1111.87,379.32 1124.9,382.91C1129.98,384.31 1135.05,385.71 1140.13,387.1C1141.07,387.36 1141.77,388.13 1141.93,389.09C1142.09,390.05 1141.69,391.01 1140.89,391.57L1037.87,462.76C1037.44,463.06 1036.95,463.2 1036.46,463.2Z" style="fill:rgb(56,255,0);fill-rule:nonzero;"/>
            </g>
            <g>
                <path d="M1035.59,439.78C1034.8,439.78 1034.03,439.41 1033.54,438.72C1032.75,437.59 1033.02,436.03 1034.15,435.24L1102.28,387.43C1100.45,386.92 1098.61,386.41 1096.78,385.9C1087.7,383.37 1078.32,380.76 1069.07,378.25L1058.18,375.3C1056.85,374.94 1056.06,373.57 1056.42,372.23C1056.78,370.9 1058.16,370.11 1059.49,370.47L1070.38,373.42C1079.64,375.93 1089.04,378.55 1098.12,381.07C1101.65,382.05 1105.18,383.04 1108.71,384.02C1109.64,384.28 1110.34,385.05 1110.51,386C1110.67,386.95 1110.27,387.92 1109.48,388.47L1037.02,439.32C1036.59,439.63 1036.09,439.78 1035.59,439.78Z" style="fill:rgb(56,255,0);fill-rule:nonzero;"/>
            </g>
            <g>
                <path d="M1034.73,416.19C1033.95,416.19 1033.18,415.83 1032.69,415.14C1031.89,414.01 1032.15,412.45 1033.28,411.65L1071.49,384.42C1063.64,382.21 1055.78,380.01 1047.92,377.83C1046.59,377.46 1045.81,376.08 1046.18,374.75C1046.55,373.42 1047.93,372.64 1049.26,373.01C1058.56,375.59 1067.85,378.2 1077.13,380.81L1077.87,381.02C1078.8,381.28 1079.49,382.05 1079.66,383C1079.83,383.95 1079.43,384.91 1078.65,385.47L1036.19,415.73C1035.74,416.04 1035.23,416.19 1034.73,416.19Z" style="fill:rgb(56,255,0);fill-rule:nonzero;"/>
            </g>
            <g>
                <path d="M1033.87,392.44C1033.1,392.44 1032.33,392.08 1031.84,391.41C1031.03,390.29 1031.28,388.73 1032.4,387.92L1041.24,381.52L1037.5,380.46C1036.17,380.08 1035.4,378.7 1035.78,377.37C1036.16,376.04 1037.54,375.27 1038.87,375.65L1047.57,378.12C1048.49,378.38 1049.18,379.15 1049.35,380.09C1049.52,381.03 1049.13,381.99 1048.35,382.55L1035.33,391.97C1034.89,392.29 1034.38,392.44 1033.87,392.44Z" style="fill:rgb(63,255,0);fill-rule:nonzero;"/>
            </g>
        </g>
    </g>
</svg>
