<svg id="Capa_1" fill="black" enable-background="new 0 0 512 512" height="512" viewBox="0 0 512 512" width="512" xmlns="http://www.w3.org/2000/svg"><g><g><g><path d="m437.019 74.981c-48.352-48.352-112.639-74.981-181.019-74.981s-132.667 26.629-181.019 74.981-74.981 112.639-74.981 181.019 26.629 132.667 74.981 181.019 112.639 74.981 181.019 74.981 132.667-26.629 181.019-74.981 74.981-112.639 74.981-181.019-26.629-132.667-74.981-181.019zm-10.555 351.483c-45.533 45.532-106.071 70.608-170.464 70.608s-124.931-25.076-170.464-70.609c-45.532-45.532-70.608-106.07-70.608-170.463s25.076-124.931 70.608-170.464c45.533-45.532 106.071-70.608 170.464-70.608s124.931 25.076 170.464 70.609 70.608 106.07 70.608 170.463-25.076 124.931-70.608 170.464z"/><path d="m412.684 99.316c-41.852-41.852-97.496-64.901-156.684-64.901-55.342 0-108.332 20.514-149.206 57.762-3.047 2.777-3.266 7.497-.489 10.544 2.777 3.048 7.498 3.265 10.544.489 38.119-34.737 87.537-53.867 139.151-53.867 113.951 0 206.657 92.706 206.657 206.657s-92.706 206.657-206.657 206.657-206.657-92.706-206.657-206.657c0-47.377 15.595-91.943 45.099-128.877 2.573-3.221 2.048-7.918-1.173-10.49-3.221-2.574-7.917-2.047-10.49 1.173-31.64 39.608-48.364 87.395-48.364 138.194 0 59.188 23.049 114.832 64.901 156.684s97.497 64.901 156.684 64.901 114.832-23.049 156.684-64.901 64.901-97.496 64.901-156.684-23.049-114.832-64.901-156.684z"/><path d="m272.544 202.444c-2.597-3.201-7.299-3.689-10.499-1.092-3.201 2.597-3.69 7.298-1.092 10.499 11.446 14.103 26.174 22.864 40.418 31.337 12.519 7.446 24.343 14.48 34.02 24.855 21.726 23.292 28.263 55.546 17.061 84.174-10.892 27.834-35.856 45.824-66.78 48.123-4.111.306-7.196 3.886-6.89 7.997.292 3.922 3.565 6.911 7.436 6.911.186 0 .373-.007.561-.021 36.792-2.735 66.539-24.257 79.574-57.57 13.315-34.026 5.633-72.266-20.046-99.796-11.13-11.933-24.436-19.848-37.305-27.502-13.723-8.164-26.687-15.876-36.458-27.915z"/><path d="m363.74 236.469c-2.963 2.866-3.042 7.591-.176 10.554 15.853 16.393 25.563 37.601 28.082 61.332 2.445 23.042-2.393 46.664-13.622 66.516-2.03 3.588-.766 8.142 2.822 10.171 1.161.657 2.422.969 3.668.969 2.602 0 5.13-1.364 6.503-3.791 12.748-22.538 18.244-49.33 15.473-75.441-2.832-26.686-14.266-51.594-32.195-70.134-2.866-2.963-7.592-3.043-10.555-.176z"/><path d="m315.305 368.24c3.379-2.362 4.203-7.015 1.841-10.394-2.361-3.379-7.015-4.203-10.394-1.841-7.16 5.005-15.582 7.65-24.356 7.65-23.475 0-42.574-19.099-42.574-42.574s19.099-42.574 42.574-42.574 42.573 19.099 42.573 42.574c0 3.859-.515 7.68-1.53 11.358-1.097 3.974 1.235 8.084 5.209 9.181 3.976 1.099 8.084-1.235 9.181-5.209 1.372-4.972 2.068-10.129 2.068-15.33 0-31.707-25.795-57.501-57.501-57.501s-57.502 25.795-57.502 57.501 25.795 57.502 57.502 57.502c11.849 0 23.229-3.576 32.909-10.343z"/><path d="m150.954 155.114c-35.188 12.886-54.656 47.911-47.344 85.173 3.306 16.844 11.764 31.479 23.818 41.21 1.38 1.114 3.038 1.656 4.684 1.656 2.178 0 4.337-.949 5.812-2.776 2.589-3.207 2.088-7.907-1.12-10.496-9.328-7.531-15.914-19.061-18.545-32.469-5.867-29.897 9.689-57.976 37.829-68.281 3.871-1.417 5.859-5.704 4.442-9.575-1.418-3.871-5.706-5.859-9.576-4.442z"/><path d="m178.439 162.685c.48 0 .967-.047 1.456-.143l1.242-.248c3.191-.64 5.712-1.146 8.568-1.146 4.122 0 7.464-3.342 7.464-7.464s-3.342-7.464-7.464-7.464c-4.338 0-7.981.731-11.503 1.437l-1.202.24c-4.044.799-6.674 4.726-5.874 8.77.702 3.556 3.821 6.018 7.313 6.018z"/><ellipse cx="211.194" cy="410.058" rx="7.464" ry="7.464" transform="matrix(.707 -.707 .707 .707 -228.098 269.44)"/><ellipse cx="85.164" cy="271.044" rx="7.464" ry="7.464" transform="matrix(.383 -.924 .924 .383 -197.839 246.002)"/><circle cx="205.083" cy="101.941" r="7.464"/><ellipse cx="407.198" cy="195.554" rx="7.464" ry="7.464" transform="matrix(.987 -.16 .16 .987 -26.066 67.751)"/><circle cx="426.835" cy="235.116" r="7.464"/><ellipse cx="117.024" cy="306.727" rx="7.464" ry="7.464" transform="matrix(.707 -.707 .707 .707 -182.613 172.587)"/><ellipse cx="109.561" cy="346.988" rx="7.464" ry="7.464" transform="matrix(.707 -.707 .707 .707 -213.268 179.101)"/><circle cx="236.256" cy="390.025" r="7.464"/><path d="m142.703 332.465c-11.758 12.345-16.9 29.66-13.754 46.318 1.281 6.782 3.247 15.631 11.035 17.396 20.24 4.586 41.966-3.282 54.469-20.057 15.809-21.21 14.951-46.936 13.848-57.012-.646-5.909-5.806-10.265-11.733-9.899-10.118.61-35.62 4.098-53.865 23.254zm51.067-8.035c.581 9.863-.228 27.933-11.287 42.77-7.324 9.826-18.974 15.561-31.11 15.354-2.137-.037-4.203-.224-6.169-.556-.658-1.881-1.19-3.886-1.588-5.987-2.256-11.947 1.443-24.378 9.895-33.252 12.764-13.399 30.44-17.24 40.259-18.329z"/><path d="m279.545 100.434c-2.763-5.261-9.15-7.422-14.54-4.92-9.193 4.268-31.653 16.841-41.628 41.344-6.428 15.79-4.881 33.786 4.139 48.139 2.058 3.275 4.37 6.253 6.872 8.851 5.642 5.859 13.96 2.92 20.596.444 15.883-5.924 28.041-19.281 32.523-35.73 6.958-25.523-3.249-49.152-7.962-58.128zm-6.438 54.204c-.001 0-.001 0 0 0-3.223 11.824-11.947 21.42-23.339 25.669-2.002.747-3.994 1.329-5.945 1.738-1.301-1.509-2.53-3.182-3.667-4.992-6.469-10.294-7.573-23.216-2.952-34.567 6.979-17.142 22.025-27.18 30.765-31.785 4.147 8.968 10.004 26.082 5.138 43.937z"/><path d="m342.739 119.765c-24.643 0-44.691 20.049-44.691 44.691s20.049 44.691 44.691 44.691c24.643 0 44.691-20.049 44.691-44.691s-20.049-44.691-44.691-44.691zm0 74.455c-16.411 0-29.763-13.352-29.763-29.763s13.352-29.763 29.763-29.763 29.763 13.352 29.763 29.763-13.352 29.763-29.763 29.763z"/></g><g><path d="m178.577 270.008c-24.643 0-44.691-20.049-44.691-44.691s20.049-44.691 44.691-44.691 44.691 20.049 44.691 44.691-20.049 44.691-44.691 44.691zm0-74.454c-16.411 0-29.763 13.352-29.763 29.763s13.352 29.763 29.763 29.763 29.763-13.352 29.763-29.763-13.352-29.763-29.763-29.763z"/></g></g></g></svg>