<svg id="Capa_1" enable-background="new 0 0 512 512" height="512" viewBox="0 0 512 512" width="512" xmlns="http://www.w3.org/2000/svg"><g><path d="m256 512c141.385 0 256-114.615 256-256s-114.615-256-256-256-256 114.615-256 256c.16 141.319 114.681 255.84 256 256zm0-494.933c131.959 0 238.933 106.974 238.933 238.933s-106.974 238.933-238.933 238.933-238.933-106.974-238.933-238.933c.15-131.897 107.036-238.783 238.933-238.933z"/><path d="m116.335 149.163 125.261 85.265c8.684 5.94 20.124 5.94 28.809 0l125.261-85.265c6.395-4.334 10.497-11.317 11.17-19.012.707-7.486-1.995-14.892-7.356-20.164-79.596-78.389-207.372-78.389-286.967 0-5.357 5.271-8.055 12.674-7.347 20.156.669 7.697 4.772 14.684 11.169 19.02zm144.469 71.142c-2.893 1.991-6.715 1.991-9.609 0l-20.617-14.029-23.287-41.677c14.961-7.954 31.781-11.752 48.708-10.999 16.902-.766 33.699 3.018 48.64 10.957l-23.194 41.719zm-136.328-98.133c72.96-71.859 190.088-71.859 263.049 0 1.709 1.693 2.562 4.067 2.321 6.46-.228 2.604-1.616 4.967-3.78 6.434l-73.25 49.86 6.707-12.075c4.468-8.026 1.783-18.148-6.076-22.903-17.586-9.577-37.438-14.213-57.446-13.414-20.038-.804-39.919 3.844-57.523 13.449-7.797 4.787-10.432 14.871-5.973 22.861l6.707 12.066-73.25-49.86c-2.164-1.467-3.552-3.83-3.78-6.434-.248-2.387.595-4.758 2.295-6.451v.007z"/><path d="m267.469 279.228 11.247 151.177c.545 7.622 4.502 14.59 10.769 18.961 4.357 3.059 9.55 4.701 14.874 4.702 2.418-.004 4.823-.337 7.151-.99 106.962-30.116 170.394-140.035 142.95-247.714-1.91-7.566-7.13-13.867-14.208-17.152-6.924-3.241-14.942-3.185-21.82.154l-136.533 65.911c-9.509 4.53-15.246 14.449-14.43 24.951zm158.344-75.495c1.134-.559 2.38-.85 3.644-.853 1.233.007 2.45.28 3.567.802 2.431 1.136 4.218 3.31 4.864 5.914 25.144 98.685-32.976 199.421-130.995 227.046-2.596.754-5.395.293-7.612-1.254-2.078-1.428-3.386-3.73-3.55-6.246l-6.579-88.397 7.108 11.861c4.72 7.876 14.825 10.606 22.869 6.178 17.088-10.443 31.027-25.32 40.337-43.051 10.699-16.953 16.597-36.492 17.067-56.533-.228-9.154-7.638-16.496-16.794-16.64l-13.909-.222zm-136.533 65.92 22.357-10.795 47.863.666c-.588 16.932-5.707 33.395-14.822 47.676-7.784 15.01-19.454 27.655-33.792 36.617l-24.55-40.96-1.852-24.858c-.272-3.504 1.631-6.817 4.796-8.346z"/><path d="m200.533 453.12c2.328.652 4.733.985 7.151.99 5.323-.001 10.517-1.643 14.874-4.702 6.267-4.372 10.224-11.339 10.769-18.961l11.247-151.177c.826-10.515-4.92-20.45-14.447-24.977l-136.533-65.911c-6.879-3.334-14.894-3.39-21.82-.154-7.078 3.285-12.298 9.586-14.208 17.152-27.458 107.693 35.986 217.631 142.967 247.74zm27.025-175.121-1.852 24.875-24.508 41.02c-14.372-8.98-26.071-21.652-33.877-36.693-9.11-14.245-14.226-30.675-14.814-47.573l47.855-.768 22.357 10.795c3.149 1.523 5.05 4.814 4.796 8.303zm-153.48-68.403c.646-2.604 2.434-4.777 4.864-5.914 1.117-.522 2.334-.796 3.567-.802 1.264.003 2.51.295 3.644.853l79.974 38.613-13.918.222c-9.184.15-16.603 7.542-16.785 16.725.503 20.013 6.416 39.516 17.109 56.439 9.326 17.755 23.293 32.649 40.414 43.093 2.495 1.367 5.295 2.084 8.141 2.082 6.013-.007 11.581-3.169 14.669-8.329l7.091-11.836-6.579 88.397c-.163 2.516-1.472 4.818-3.55 6.246-2.211 1.555-5.01 2.017-7.603 1.254-98.037-27.604-156.179-128.346-131.038-227.043z"/><circle cx="256" cy="102.4" r="8.533"/><path d="m223.787 114.654c4.591-1.064 7.451-5.648 6.387-10.239s-5.648-7.451-10.239-6.387c-4.59 1.063-7.449 5.645-6.388 10.235 1.061 4.592 5.644 7.454 10.236 6.392.001 0 .002-.001.004-.001z"/><circle cx="187.733" cy="119.467" r="8.533"/><path d="m288.213 114.654c4.592 1.061 9.175-1.801 10.236-6.392 1.061-4.592-1.801-9.175-6.392-10.236-4.59-1.061-9.172 1.799-10.235 6.388-1.064 4.591 1.796 9.175 6.387 10.239.002 0 .003.001.004.001z"/><circle cx="324.267" cy="119.467" r="8.533"/><path d="m130.372 328.533c-2.356-4.081-7.575-5.48-11.657-3.124-4.081 2.356-5.48 7.575-3.124 11.657 2.356 4.081 7.575 5.48 11.657 3.124 4.082-2.357 5.481-7.575 3.124-11.657z"/><path d="m149.282 366.635c3.444-3.217 3.629-8.616.413-12.061-3.217-3.444-8.616-3.629-12.061-.413-3.442 3.215-3.629 8.61-.418 12.055 3.214 3.447 8.613 3.637 12.061.423.001-.001.003-.003.005-.004z"/><path d="m176.162 390.775c4.081-2.356 5.48-7.575 3.124-11.657-2.356-4.081-7.575-5.48-11.657-3.124-4.081 2.356-5.48 7.575-3.124 11.657 2.357 4.082 7.576 5.481 11.657 3.124z"/><path d="m117.487 298.778c-1.375-4.508-6.144-7.048-10.652-5.673s-7.048 6.144-5.673 10.652 6.144 7.048 10.652 5.673c.002-.001.004-.001.007-.002 4.504-1.379 7.04-6.145 5.666-10.65z"/><path d="m107.895 272.538c4.081-2.356 5.48-7.575 3.124-11.657-2.356-4.081-7.575-5.48-11.657-3.124-4.081 2.356-5.48 7.575-3.124 11.657 2.357 4.082 7.576 5.48 11.657 3.124z"/><path d="m384.751 340.19c4.081 2.357 9.3.958 11.657-3.123s.958-9.3-3.123-11.657-9.3-.958-11.657 3.123c-2.357 4.082-.958 9.3 3.123 11.657z"/><path d="m400.213 309.427c4.507 1.377 9.277-1.16 10.654-5.667s-1.16-9.277-5.667-10.654c-4.506-1.377-9.275 1.159-10.653 5.664-1.379 4.507 1.156 9.278 5.662 10.657.002-.001.003 0 .004 0z"/><ellipse cx="408.374" cy="265.149" rx="8.533" ry="8.533" transform="matrix(.966 -.259 .259 .966 -54.711 114.73)"/><path d="m362.3 354.569c-3.211 3.45-3.017 8.849.433 12.06s8.849 3.017 12.06-.433 3.017-8.849-.433-12.06c-.001-.001-.002-.002-.003-.002-3.45-3.209-8.847-3.014-12.057.435z"/><path d="m344.371 375.996c-4.081-2.357-9.3-.958-11.657 3.123s-.958 9.3 3.123 11.657 9.3.958 11.657-3.123c2.357-4.082.958-9.301-3.123-11.657z"/></g></svg>